<svg width="17" height="17" viewBox="0 0 17 17" fill="none" xmlns="http://www.w3.org/2000/svg">
<path fill-rule="evenodd" clip-rule="evenodd" d="M3.86289 17C3.1283 17 2.3868 16.7841 1.73912 16.3316L1.60237 16.2365C-0.0881621 15.0567 -0.508367 12.7124 0.665344 11.0107L4.22609 6.2321C4.78407 5.42496 5.63777 4.8723 6.61876 4.69493C7.6 4.51757 8.59121 4.73349 9.41015 5.30671L9.5469 5.40182C10.2419 5.88508 10.7572 6.60225 10.9972 7.41968C11.0774 7.68958 10.9228 7.97748 10.6521 8.05716C10.3817 8.13685 10.0972 7.98262 10.0167 7.71014C9.84007 7.10864 9.47584 6.60225 8.96388 6.24495L8.82739 6.14984C8.23235 5.73599 7.51207 5.57662 6.80023 5.70771C6.08788 5.83624 5.46831 6.23724 5.055 6.8336L1.49451 11.6122C0.652819 12.8332 0.958005 14.5349 2.18565 15.3908L2.32214 15.4859C3.54927 16.3445 5.24184 16.0386 6.09452 14.8022L7.18235 13.229C7.34338 12.9951 7.6616 12.9386 7.89394 13.1005C8.12551 13.2625 8.18302 13.5812 8.02199 13.8151L6.93417 15.3908C6.21005 16.4396 5.04554 17 3.86289 17Z" fill="#817C98"/>
<path fill-rule="evenodd" clip-rule="evenodd" d="M9.48113 12.368C8.74577 12.368 8.00274 12.1495 7.35378 11.6971L7.21601 11.5994C6.52155 11.1162 6.00677 10.399 5.76728 9.58416C5.68702 9.31169 5.84191 9.02636 6.11233 8.9441C6.38404 8.86442 6.66775 9.02122 6.7475 9.29369C6.92412 9.89262 7.28809 10.399 7.80005 10.7563L7.93757 10.854C9.16419 11.71 10.8568 11.4015 11.7094 10.1677L15.2697 5.38908C16.1116 4.17066 15.8064 2.46898 14.5788 1.61043L14.4433 1.51789C13.8473 1.10147 13.1275 0.942096 12.4149 1.07062C11.7025 1.20172 11.0827 1.60272 10.6697 2.19908L9.58209 3.7748C9.42106 4.00872 9.10259 4.06527 8.87076 3.90333C8.63893 3.74138 8.58142 3.42007 8.74245 3.18872L9.83002 1.613C10.3987 0.790436 11.2524 0.237776 12.2337 0.0604104C13.2147 -0.116955 14.2064 0.0989681 15.0253 0.672192L15.1608 0.764731C16.8529 1.94717 17.2728 4.29147 16.0986 5.99058L12.5383 10.7692C11.8214 11.8077 10.6612 12.368 9.48113 12.368Z" fill="#817C98"/>
<path fill-rule="evenodd" clip-rule="evenodd" d="M12.6634 7.75519C12.61 7.75519 12.5563 7.73719 12.5103 7.70378C12.3973 7.61895 12.3743 7.45701 12.4592 7.3439L12.5992 7.15626C12.6838 7.04315 12.8444 7.02002 12.9568 7.10485C13.0701 7.18967 13.0928 7.35162 13.0079 7.46472L12.8679 7.65237C12.8178 7.7192 12.7411 7.75519 12.6634 7.75519Z" fill="#817C98"/>
<path fill-rule="evenodd" clip-rule="evenodd" d="M13.2503 6.97183C13.1969 6.97183 13.1432 6.95383 13.0972 6.92042C12.9842 6.83559 12.9612 6.67365 13.0461 6.56055L14.1774 5.04394C14.4483 4.65065 14.5531 4.16483 14.4672 3.68414C14.3811 3.20603 14.1145 2.78703 13.7163 2.50942L13.6286 2.4503C13.5126 2.36804 13.4837 2.20867 13.5639 2.09042C13.6442 1.97475 13.8032 1.94648 13.9197 2.02616L14.0077 2.08785C14.5181 2.44515 14.8598 2.97982 14.97 3.59417C15.0804 4.20853 14.9462 4.83059 14.5917 5.34212L13.455 6.86901C13.4047 6.93584 13.3283 6.97183 13.2503 6.97183Z" fill="#817C98"/>
</svg>
